<?xml version="1.0" standalone="no"?>
<!DOCTYPE svg PUBLIC "-//W3C//DTD SVG 1.1//EN" "http://www.w3.org/Graphics/SVG/1.1/DTD/svg11.dtd" >
<svg xmlns="http://www.w3.org/2000/svg">
<metadata>Generated by IcoMoon</metadata>
<defs>
<font id="jitsi" horiz-adv-x="1024">
<font-face units-per-em="1024" ascent="1024" descent="0" />
<missing-glyph horiz-adv-x="1024" />
<glyph unicode="&#x20;" horiz-adv-x="0" d="" />
<glyph unicode="&#xe0cd;" glyph-name="phone" d="M282 564c62-120 162-220 282-282l94 94c12 12 30 16 44 10 48-16 100-24 152-24 24 0 42-18 42-42v-150c0-24-18-42-42-42-400 0-726 326-726 726 0 24 18 42 42 42h150c24 0 42-18 42-42 0-54 8-104 24-152 4-14 2-32-10-44z" />
<glyph unicode="&#xe145;" glyph-name="add" d="M810 470h-256v-256h-84v256h-256v84h256v256h84v-256h256v-84z" />
<glyph unicode="&#xe1aa;" glyph-name="bluetooth" d="M550 328l-80 82v-162zM470 776v-162l80 82zM670 696l-184-184 184-184-244-242h-42v324l-196-196-60 60 238 238-238 238 60 60 196-196v324h42zM834 738c40-64 62-142 62-222 0-84-24-160-66-226l-50 50c26 52 42 110 42 172s-16 120-42 172zM608 512l98 98c12-30 20-64 20-98s-8-70-20-100z" />
<glyph unicode="&#xe310;" glyph-name="headset" d="M512 982c212 0 384-172 384-384v-300c0-70-58-128-128-128h-128v342h170v86c0 166-132 298-298 298s-298-132-298-298v-86h170v-342h-128c-70 0-128 58-128 128v300c0 212 172 384 384 384z" />
<glyph unicode="&#xe408;" glyph-name="navigate_before" d="M658 708l-196-196 196-196-60-60-256 256 256 256z" />
<glyph unicode="&#xe409;" glyph-name="navigate_next" d="M426 768l256-256-256-256-60 60 196 196-196 196z" />
<glyph unicode="&#xe425;" glyph-name="timer" d="M512 170c166 0 298 134 298 300s-132 298-298 298-298-132-298-298 132-300 298-300zM812 708c52-66 84-148 84-238 0-212-172-384-384-384s-384 172-384 384 172 384 384 384c90 0 174-34 240-86l60 62c22-18 42-38 60-60zM470 426v256h84v-256h-84zM640 982v-86h-256v86h256z" />
<glyph unicode="&#xe5c4;" glyph-name="arrow_back" d="M854 554v-84h-520l238-240-60-60-342 342 342 342 60-60-238-240h520z" />
<glyph unicode="&#xe5d2;" glyph-name="menu" d="M128 768h768v-86h-768v86zM128 470v84h768v-84h-768zM128 256v86h768v-86h-768z" />
<glyph unicode="&#xe5d4;" glyph-name="thumb-menu" d="M512 342c46 0 86-40 86-86s-40-86-86-86-86 40-86 86 40 86 86 86zM512 598c46 0 86-40 86-86s-40-86-86-86-86 40-86 86 40 86 86 86zM512 682c-46 0-86 40-86 86s40 86 86 86 86-40 86-86-40-86-86-86z" />
<glyph unicode="&#xe603;" glyph-name="presentation" horiz-adv-x="1088" d="M952.495 1019.065h-818.689c-72.81 0-132.183-60.63-132.183-135.162v-750.719c0-74.473 59.372-135.101 132.183-135.101h818.686c72.936 0 132.314 60.625 132.314 135.101v750.722c0.003 74.532-59.378 135.159-132.311 135.159zM946.346 139.651h-806.14v737.822h806.015l0.126-737.822zM685.753 738.544h216.911v-566.758h-216.911v566.758zM428.672 610.002h216.911v-438.216h-216.911v438.216zM172.339 481.46h216.161v-309.677h-216.161v309.677z" />
<glyph unicode="&#xe613;" glyph-name="recDisable" horiz-adv-x="1140" d="M1123.444 1003.015c-23.593 26.481-64.131 28.989-90.74 5.395l-1008.269-893.436c-26.609-23.468-28.991-64.131-5.46-90.676 12.674-14.306 30.308-21.649 48.126-21.649 15.123 0 30.372 5.401 42.544 16.195l130.045 115.22c90.743-81.844 210.569-132.165 342.473-132.101 282.816 0.061 510.913 227.969 511.287 510.972 0.126 109.934-34.682 211.367-93.499 294.72l118.088 104.625c26.483 23.526 28.997 64.129 5.404 90.735zM944.422 513.818c0.128-200.922-161.896-363.201-362.509-362.952-87.56 0.123-167.573 31.151-230.061 82.569l331.277 293.509v-73.176c1.071-60.993 32.696-92.18 94.944-93.692 61.997 1.512 93.686 32.763 95.131 93.756v41.096h-72.227v-47.499c0.251-4.642-0.564-10.607-2.511-17.949-1.25-3.261-3.448-6.020-6.525-8.093-3.197-2.572-7.845-3.828-13.868-3.828-10.543 0.31-17.132 4.268-19.827 11.921-1.068 3.512-1.947 6.905-2.508 10.163-0.254 2.887-0.377 5.532-0.377 7.786v143.511l42.477 37.634c0.215-0.432 0.452-0.851 0.63-1.303 1.947-6.467 2.762-12.799 2.511-19.076v-36.772h72.227v30.121c-0.246 31.245-9.086 54.699-26.363 70.447l40.711 36.069c35.787-56.055 56.803-122.585 56.867-194.244zM239.795 395.47c-12.613 37.023-19.827 76.557-19.827 117.913-0.19 200.236 161.584 362.009 361.945 362.135 56.853 0 110.313-13.302 158.133-36.398l117.846 104.421c-79.444 50.952-173.758 80.817-275.292 80.948-283.377 0.181-511.354-227.729-511.789-511.675-0.126-79.567 18.636-154.679 51.137-221.882l117.848 104.538zM388.576 690.020h-97.514v-249.057l72.23 64.070v0.689h0.815l117.72 104.418c0 0.564 0.123 0.94 0.123 1.509 0.753 53.898-30.369 80.069-93.374 78.37zM405.959 625.517c1.942-2.767 3.074-6.469 3.323-11.112 0.312-4.452 0.438-9.6 0.438-15.246 0.251-10.916-0.689-19.83-2.949-26.985-2.952-7.594-10.983-11.357-24.159-11.357h-19.325v74.043h15.31c7.842 0 13.865-0.683 18.072-2.19 4.397-1.573 7.468-3.953 9.29-7.153z" />
<glyph unicode="&#xe614;" glyph-name="recEnable" horiz-adv-x="1142" d="M581.278 1025.708c284.857-0.19 514.807-230.517 514.427-514.997-0.378-285.047-230.073-514.553-514.869-514.615-284.541-0.062-515.311 230.517-514.933 514.422 0.439 285.936 230.009 515.439 515.375 515.19zM580.579 875.756c-201.764-0.123-364.666-163.032-364.478-364.663 0-202.018 162.524-364.735 364.478-364.984 202.018-0.316 365.174 163.030 365.048 365.423-0.252 201.767-163.156 364.35-365.048 364.224zM287.698 688.907h98.196c63.442 1.767 94.785-24.518 94.027-78.863 0.254-19.081-2.211-34.882-7.456-47.521-6.005-12.508-18.706-21.988-38.167-28.181v-0.819c28.373-6.259 43.031-23.573 43.981-51.946v-57.689c0-11.247 0.254-22.813 0.758-34.756 0.819-12.005 3.033-20.979 6.696-27.043h-71.846c-3.727 6.064-6.128 15.038-7.14 27.043-1.012 11.943-1.454 23.509-1.138 34.756v52.321c0 9.603-2.214 16.553-6.573 20.979-4.675 4.107-12.701 6.19-24.012 6.19h-14.599v-141.291h-72.73v326.82zM360.428 558.861h19.463c13.271 0 21.359 3.794 24.331 11.375 2.276 7.204 3.221 16.304 2.969 27.171 0 5.815-0.126 10.867-0.442 15.418-0.252 4.675-1.392 8.404-3.352 11.247-1.831 3.157-4.926 5.561-9.352 7.14-4.233 1.454-10.299 2.211-18.2 2.211h-15.418v-74.564zM498.372 688.907h162.082v-62.687h-89.35v-65.587h78.103v-62.685h-78.103v-73.11h92.822v-62.749h-165.557v326.818zM682.507 599.999c0.316 31.782 9.416 55.542 27.425 71.407 17.44 15.29 40.185 22.936 68.181 22.936 28.247 0 51.119-7.646 68.623-23 17.82-15.798 26.92-39.623 27.171-71.407v-30.333h-72.73v37.031c0.254 6.192-0.57 12.639-2.527 19.209-1.264 3.157-3.475 5.938-6.573 8.214-3.221 1.515-7.898 2.404-13.964 2.404-10.615-0.316-17.249-3.855-19.967-10.618-2.211-6.573-3.223-13.017-2.907-19.209v-161.956c0-2.273 0.126-4.865 0.38-7.772 0.568-3.411 1.454-6.824 2.527-10.233 2.717-7.775 9.352-11.756 19.967-12.007 6.067 0 10.744 1.261 13.964 3.791 3.098 2.15 5.309 4.867 6.573 8.216 1.96 7.33 2.782 13.33 2.527 18.007v47.837h72.73v-41.328c-1.451-61.547-33.364-93.015-95.794-94.469-62.685 1.454-94.53 32.922-95.607 94.343v148.937z" />
<glyph unicode="&#xe616;" glyph-name="event_note" d="M598 426v-84h-300v84h300zM810 214v468h-596v-468h596zM810 896c46 0 86-40 86-86v-596c0-46-40-86-86-86h-596c-48 0-86 40-86 86v596c0 46 38 86 86 86h42v86h86v-86h340v86h86v-86h42zM726 598v-86h-428v86h428z" />
<glyph unicode="&#xe61d;" glyph-name="phone-talk" d="M640 512c0 70-58 128-128 128v86c118 0 214-96 214-214h-86zM810 512c0 166-132 298-298 298v86c212 0 384-172 384-384h-86zM854 362c24 0 42-18 42-42v-150c0-24-18-42-42-42-400 0-726 326-726 726 0 24 18 42 42 42h150c24 0 42-18 42-42 0-54 8-104 24-152 4-14 2-32-10-44l-94-94c62-122 162-220 282-282l94 94c12 12 30 14 44 10 48-16 98-24 152-24z" />
<glyph unicode="&#xe80b;" glyph-name="public" d="M764 282c56 60 90 142 90 230 0 142-88 266-214 316v-18c0-46-40-84-86-84h-84v-86c0-24-20-42-44-42h-84v-86h256c24 0 42-18 42-42v-128h42c38 0 70-26 82-60zM470 174v82c-46 0-86 40-86 86v42l-204 204c-6-24-10-50-10-76 0-174 132-318 300-338zM512 938c236 0 426-190 426-426s-190-426-426-426-426 190-426 426 190 426 426 426z" />
<glyph unicode="&#xe89e;" glyph-name="open_in_new" d="M598 896h298v-298h-86v152l-418-418-60 60 418 418h-152v86zM810 214v298h86v-298c0-46-40-86-86-86h-596c-48 0-86 40-86 86v596c0 46 38 86 86 86h298v-86h-298v-596h596z" />
<glyph unicode="&#xe8b3;" glyph-name="restore" d="M512 682h64v-180l150-90-32-52-182 110v212zM554 896c212 0 384-172 384-384s-172-384-384-384c-106 0-200 42-270 112l60 62c54-54 128-88 210-88 166 0 300 132 300 298s-134 298-300 298-298-132-298-298h128l-172-172-4 6-166 166h128c0 212 172 384 384 384z" />
<glyph unicode="&#xe900;" glyph-name="AUD" d="M512 0c-282.77 0-512 229.23-512 512s229.23 512 512 512c282.77 0 512-229.23 512-512s-229.23-512-512-512zM308.25 387.3h57.225l-87.675 252.525h-62.125l-87.675-252.525h53.025l19.425 60.2h88.725l19.075-60.2zM461.9 639.825h-52.85v-165.375c0-56 41.125-93.625 105.7-93.625 64.75 0 105.875 37.625 105.875 93.625v165.375h-52.85v-159.95c0-31.85-19.075-52.15-53.025-52.15-33.775 0-52.85 20.3-52.85 52.15v159.95zM682.225 640v-252.7h99.4c75.6 0 118.475 46.025 118.475 128.1 0 79.1-43.4 124.6-118.475 124.6h-99.4zM735.075 594.85v-162.4h38.15c46.725 0 72.975 28.7 72.975 82.075 0 51.1-27.125 80.325-72.975 80.325h-38.15zM243.5 587.325l-31.675-99.050h66.15l-31.325 99.050h-3.15z" />
<glyph unicode="&#xe901;" glyph-name="avatar" d="M512 204c106 0 200 56 256 138-2 84-172 132-256 132-86 0-254-48-256-132 56-82 150-138 256-138zM512 810c-70 0-128-58-128-128s58-128 128-128 128 58 128 128-58 128-128 128zM512 938c236 0 426-190 426-426s-190-426-426-426-426 190-426 426 190 426 426 426z" />
<glyph unicode="&#xe902;" glyph-name="download" d="M726 470h-128v170h-172v-170h-128l214-214zM826 596c110-8 198-100 198-212 0-118-96-214-214-214h-554c-142 0-256 114-256 256 0 132 100 240 228 254 54 102 160 174 284 174 156 0 284-110 314-258z" />
<glyph unicode="&#xe903;" glyph-name="mic-camera-combined" d="M756.704 628.138l267.296 202.213v-635.075l-267.296 202.213v-191.923c0-12.085-11.296-21.863-25.216-21.863h-706.272c-13.92 0-25.216 9.777-25.216 21.863v612.25c0 12.085 11.296 21.863 25.216 21.863h706.272c13.92 0 25.216-9.777 25.216-21.863v-189.679zM371.338 376.228c47.817 0 86.529 40.232 86.529 89.811v184.835c0 49.651-38.713 89.883-86.529 89.883-47.788 0-86.515-40.232-86.515-89.883v-184.835c0-49.579 38.756-89.811 86.515-89.811v0zM356.754 314.070v-32.78h33.718v33.412c73.858 9.606 131.235 73.73 131.235 151.351v88.232h-30.636v-88.232c0-67.57-53.696-122.534-119.734-122.534-66.024 0-119.691 54.964-119.691 122.534v88.232h-30.636v-88.232c0-79.215 59.674-144.502 135.744-151.969v-0.014z" />
<glyph unicode="&#xe904;" glyph-name="kick" d="M512 810l284-426h-568zM214 298h596v-84h-596v84z" />
<glyph unicode="&#xe905;" glyph-name="hangup" d="M512 640c-68 0-134-10-196-30v-132c0-16-10-34-24-40-42-20-80-46-114-78-8-8-18-12-30-12s-22 4-30 12l-106 106c-8 8-12 18-12 30s4 22 12 30c130 124 306 200 500 200s370-76 500-200c8-8 12-18 12-30s-4-22-12-30l-106-106c-8-8-18-12-30-12s-22 4-30 12c-34 32-72 58-114 78-14 6-24 20-24 38v132c-62 20-128 32-196 32z" />
<glyph unicode="&#xe906;" glyph-name="chat" d="M854 342v512h-684v-598l86 86h598zM854 938c46 0 84-38 84-84v-512c0-46-38-86-84-86h-598l-170-170v768c0 46 38 84 84 84h684z" />
<glyph unicode="&#xe907;" glyph-name="edit" d="M884 724l-78-78-160 160 78 78c16 16 44 16 60 0l100-100c16-16 16-44 0-60zM128 288l472 472 160-160-472-472h-160v160z" />
<glyph unicode="&#xe908;" glyph-name="share-doc" d="M554 640h236l-236 234v-234zM682 426v86h-340v-86h340zM682 256v86h-340v-86h340zM598 938l256-256v-512c0-46-40-84-86-84h-512c-46 0-86 38-86 84l2 684c0 46 38 84 84 84h342z" />
<glyph unicode="&#xe909;" glyph-name="ninja" d="M330.667 469.333c-0.427 14.933 6.4 29.44 17.92 39.253 32-6.827 61.867-20.053 88.747-39.253 0-29.013-23.893-52.907-53.333-52.907s-52.907 23.467-53.333 52.907zM586.667 469.333c26.88 18.773 56.747 32 88.747 38.827 11.52-9.813 18.347-24.32 17.92-38.827 0-29.867-23.893-53.76-53.333-53.76s-53.333 23.893-53.333 53.76v0zM512 640c-118.187 1.707-234.667-27.733-338.347-85.333l-2.987-42.667c0-52.48 12.373-104.107 35.84-151.040 101.12 15.36 203.093 23.040 305.493 23.040s204.373-7.68 305.493-23.040c23.467 46.933 35.84 98.56 35.84 151.040l-2.987 42.667c-103.68 57.6-220.16 87.040-338.347 85.333zM512 938.667c235.641 0 426.667-191.025 426.667-426.667s-191.025-426.667-426.667-426.667c-235.641 0-426.667 191.025-426.667 426.667s191.025 426.667 426.667 426.667z" />
<glyph unicode="&#xe90a;" glyph-name="star-full" d="M512 288l-264-160 70 300-232 202 306 26 120 282 120-282 306-26-232-202 70-300z" />
<glyph unicode="&#xe90b;" glyph-name="full-screen" d="M598 810h212v-212h-84v128h-128v84zM726 298v128h84v-212h-212v84h128zM214 598v212h212v-84h-128v-128h-84zM298 426v-128h128v-84h-212v212h84z" />
<glyph unicode="&#xe90c;" glyph-name="exit-full-screen" d="M682 682h128v-84h-212v212h84v-128zM598 214v212h212v-84h-128v-128h-84zM342 682v128h84v-212h-212v84h128zM214 342v84h212v-212h-84v128h-128z" />
<glyph unicode="&#xe90d;" glyph-name="security" d="M768 170v428h-512v-428h512zM768 682c46 0 86-38 86-84v-428c0-46-40-84-86-84h-512c-46 0-86 38-86 84v428c0 46 40 84 86 84h388v86c0 72-60 132-132 132s-132-60-132-132h-82c0 118 96 214 214 214s214-96 214-214v-86h42zM512 298c-46 0-86 40-86 86s40 86 86 86 86-40 86-86-40-86-86-86z" />
<glyph unicode="&#xe90e;" glyph-name="security-locked" d="M768 170v428h-512v-428h512zM380 768v-86h264v86c0 72-60 132-132 132s-132-60-132-132zM768 682c46 0 86-38 86-84v-428c0-46-40-84-86-84h-512c-46 0-86 38-86 84v428c0 46 40 84 86 84h42v86c0 118 96 214 214 214s214-96 214-214v-86h42zM512 298c-46 0-86 40-86 86s40 86 86 86 86-40 86-86-40-86-86-86z" />
<glyph unicode="&#xe90f;" glyph-name="reload" d="M512 256v128l170-170-170-172v128c-188 0-342 154-342 342 0 66 20 130 54 182l62-62c-20-36-30-76-30-120 0-142 114-256 256-256zM512 854c188 0 342-154 342-342 0-66-20-130-54-182l-62 62c20 36 30 76 30 120 0 142-114 256-256 256v-128l-170 170 170 172v-128z" />
<glyph unicode="&#xe910;" glyph-name="microphone" d="M738 554h72c0-146-116-266-256-286v-140h-84v140c-140 20-256 140-256 286h72c0-128 108-216 226-216s226 88 226 216zM512 426c-70 0-128 58-128 128v256c0 70 58 128 128 128s128-58 128-128v-256c0-70-58-128-128-128z" />
<glyph unicode="&#xe911;" glyph-name="mic-empty" d="M738 554h72c0-146-116-266-256-286v-140h-84v140c-140 20-256 140-256 286h72c0-128 108-216 226-216s226 88 226 216zM460 814v-264c0-28 24-50 52-50s50 22 50 50l2 264c0 28-24 52-52 52s-52-24-52-52zM512 426c-70 0-128 58-128 128v256c0 70 58 128 128 128s128-58 128-128v-256c0-70-58-128-128-128z" />
<glyph unicode="&#xe912;" glyph-name="mic-disabled" d="M182 896l714-714-54-54-178 178c-32-20-72-32-110-38v-140h-84v140c-140 20-256 140-256 286h72c0-128 108-216 226-216 34 0 68 8 98 22l-70 70c-8-2-18-4-28-4-70 0-128 58-128 128v32l-256 256zM640 548l-256 254v8c0 70 58 128 128 128s128-58 128-128v-262zM810 554c0-50-14-98-38-140l-52 54c12 26 18 54 18 86h72z" />
<glyph unicode="&#xe913;" glyph-name="link" d="M640 426c114 0 342-56 342-170v-86h-684v86c0 114 228 170 342 170zM256 598h128v-86h-128v-128h-86v128h-128v86h128v128h86v-128zM640 512c-94 0-170 76-170 170s76 172 170 172 170-78 170-172-76-170-170-170z" />
<glyph unicode="&#xe914;" glyph-name="shared-video" d="M512 170c188 0 342 154 342 342s-154 342-342 342-342-154-342-342 154-342 342-342zM512 938c236 0 426-190 426-426s-190-426-426-426-426 190-426 426 190 426 426 426zM426 320v384l256-192z" />
<glyph unicode="&#xe915;" glyph-name="settings" d="M512 362c82 0 150 68 150 150s-68 150-150 150-150-68-150-150 68-150 150-150zM830 470l90-70c8-6 10-18 4-28l-86-148c-6-10-16-12-26-8l-106 42c-22-16-46-32-72-42l-16-112c-2-10-10-18-20-18h-172c-10 0-18 8-20 18l-16 112c-26 10-50 24-72 42l-106-42c-10-4-20-2-26 8l-86 148c-6 10-4 22 4 28l90 70c-2 14-2 28-2 42s0 28 2 42l-90 70c-8 6-10 18-4 28l86 148c6 10 16 12 26 8l106-42c22 16 46 32 72 42l16 112c2 10 10 18 20 18h172c10 0 18-8 20-18l16-112c26-10 50-24 72-42l106 42c10 4 20 2 26-8l86-148c6-10 4-22-4-28l-90-70c2-14 2-28 2-42s0-28-2-42z" />
<glyph unicode="&#xe916;" glyph-name="star" d="M512 366l160-96-42 182 142 124-188 16-72 172-72-172-188-16 142-124-42-182zM938 630l-232-202 70-300-264 160-264-160 70 300-232 202 306 26 120 282 120-282z" />
<glyph unicode="&#xe917;" glyph-name="share-desktop" d="M896 298v512h-768v-512h768zM896 896c46 0 86-40 86-86l-2-512c0-46-38-84-84-84h-214v-86h-340v86h-214c-46 0-86 38-86 84v512c0 46 40 86 86 86h768z" />
<glyph unicode="&#xe918;" glyph-name="camera" d="M726 576l170 170v-468l-170 170v-150c0-24-20-42-44-42h-512c-24 0-42 18-42 42v428c0 24 18 42 42 42h512c24 0 44-18 44-42v-150z" />
<glyph unicode="&#xe919;" glyph-name="camera-disabled" d="M140 938l756-756-54-54-136 136c-6-4-16-8-24-8h-512c-24 0-42 18-42 42v428c0 24 18 42 42 42h32l-116 116zM896 746v-456l-478 478h264c24 0 44-18 44-42v-150z" />
<glyph unicode="&#xe91a;" glyph-name="volume" d="M598 886c172-38 298-192 298-374s-126-336-298-374v88c124 36 212 150 212 286s-88 250-212 286v88zM704 512c0-76-42-140-106-172v344c64-32 106-96 106-172zM128 640h170l214 214v-684l-214 214h-170v256z" />
<glyph unicode="&#xe91b;" glyph-name="contactList" d="M704 746c-46 0-86-38-86-84s40-86 86-86 86 40 86 86-40 84-86 84zM704 512c-82 0-150 68-150 150s68 148 150 148 150-66 150-148-68-150-150-150zM320 746c-46 0-86-38-86-84s40-86 86-86 86 40 86 86-40 84-86 84zM320 512c-82 0-150 68-150 150s68 148 150 148 150-66 150-148-68-150-150-150zM918 278v52c0 24-110 76-214 76-46 0-90-12-128-24 14-16 22-32 22-52v-52h320zM534 278v52c0 24-110 76-214 76s-214-52-214-76v-52h428zM704 470c92 0 278-48 278-140v-116h-940v116c0 92 186 140 278 140 52 0 130-16 192-44 62 28 140 44 192 44z" />
<glyph unicode="&#xe91c;" glyph-name="toggle-filmstrip" d="M896 896h-768c-46.933 0-85.333-38.4-85.333-85.333v-597.333c0-46.933 38.4-85.333 85.333-85.333h768c46.933 0 85.333 38.4 85.333 85.333v597.333c0 46.933-38.4 85.333-85.333 85.333zM896 213.333h-768v128h768v-128z" />
<glyph unicode="&#xe91d;" glyph-name="feedback" d="M42.667 128h170.667v512h-170.667v-512zM981.333 597.333c0 46.933-38.4 85.333-85.333 85.333h-269.227l40.533 194.987 1.28 13.653c0 17.493-7.253 33.707-18.773 45.227l-45.227 44.8-280.747-281.173c-15.787-15.36-25.173-36.693-25.173-60.16v-426.667c0-46.933 38.4-85.333 85.333-85.333h384c35.413 0 65.707 21.333 78.507 52.053l128.853 300.8c3.84 9.813 5.973 20.053 5.973 31.147v81.493l-0.427 0.427 0.427 3.413z" />
<glyph unicode="&#xe91e;" glyph-name="raised-hand" d="M982 790v-620c0-94-78-170-172-170h-310c-46 0-90 18-122 50l-336 342s54 52 56 52c10 8 22 12 34 12 10 0 18-2 26-6 2 0 184-104 184-104v508c0 36 28 64 64 64s64-28 64-64v-300h42v406c0 36 28 64 64 64s64-28 64-64v-406h42v364c0 36 28 64 64 64s64-28 64-64v-364h44v236c0 36 28 64 64 64s64-28 64-64z" />
<glyph unicode="&#xe91f;" glyph-name="menu-up" d="M0.888 1024h14.224c0.489 0 0.888-0.4 0.888-0.888v-3.372h-16v3.372c0 0.489 0.4 0.888 0.888 0.888zM16 1017.964v-0.533c-0.001-1.368-0.424-2.636-1.146-3.683l0.014 0.022c-0.599-0.932-1.442-1.665-2.419-2.175v-21.193c-0.002-0.489-0.398-0.885-0.887-0.887l-0-0h-7.124c-0.489 0.002-0.885 0.398-0.887 0.887l-0 0v21.193c-0.977 0.51-1.82 1.243-2.42 2.175-0.707 1.025-1.13 2.293-1.131 3.66l-0 0v0.533h16zM8.011 1009.065c-0.51 0-0.91-0.4-0.91-0.887v-2.841c0-0.488 0.4-0.888 0.91-0.888 0.49 0.001 0.887 0.398 0.888 0.888l0 0v2.84c-0.001 0.49-0.398 0.887-0.888 0.888l-0 0z" />
<glyph unicode="&#xe920;" glyph-name="menu-down" d="M708 658l60-60-256-256-256 256 60 60 196-196z" />
<glyph unicode="&#xe921;" glyph-name="switch-camera" d="M640 362l150 150-150 150v-108h-256v108l-150-150 150-150v108h256v-108zM854 854c46 0 84-40 84-86v-512c0-46-38-86-84-86h-684c-46 0-84 40-84 86v512c0 46 38 86 84 86h136l78 84h256l78-84h136z" />
<glyph unicode="&#xe922;" glyph-name="info" d="M512 938.667c-235.52 0-426.667-191.147-426.667-426.667s191.147-426.667 426.667-426.667 426.667 191.147 426.667 426.667-191.147 426.667-426.667 426.667zM554.667 298.667h-85.333v256h85.333v-256zM554.667 640h-85.333v85.333h85.333v-85.333z" />
<glyph unicode="&#xe923;" glyph-name="visibility" d="M512 640c70 0 128-58 128-128s-58-128-128-128-128 58-128 128 58 128 128 128zM512 298c118 0 214 96 214 214s-96 214-214 214-214-96-214-214 96-214 214-214zM512 832c214 0 396-132 470-320-74-188-256-320-470-320s-396 132-470 320c74 188 256 320 470 320z" />
<glyph unicode="&#xe924;" glyph-name="visibility-off" d="M506 640h6c70 0 128-58 128-128v-8zM322 606c-14-28-24-60-24-94 0-118 96-214 214-214 34 0 66 10 94 24l-66 66c-8-2-18-4-28-4-70 0-128 58-128 128 0 10 2 20 4 28zM86 842l54 54 756-756-54-54c-47.968 47.365-96.266 94.401-144 142-58-24-120-36-186-36-214 0-396 132-470 320 34 84 90 156 160 212-39.017 38.983-77.307 78.693-116 118zM512 726c-28 0-54-6-78-16l-92 92c52 20 110 30 170 30 214 0 394-132 468-320-32-80-82-148-146-202l-124 124c10 24 16 50 16 78 0 118-96 214-214 214z" />
<glyph unicode="&#xe925;" glyph-name="dialpad" d="M512 982c46 0 86-40 86-86s-40-86-86-86-86 40-86 86 40 86 86 86zM512 726c46 0 86-40 86-86s-40-86-86-86-86 40-86 86 40 86 86 86zM768 726c46 0 86-40 86-86s-40-86-86-86-86 40-86 86 40 86 86 86zM768 470c46 0 86-40 86-86s-40-86-86-86-86 40-86 86 40 86 86 86zM512 470c46 0 86-40 86-86s-40-86-86-86-86 40-86 86 40 86 86 86zM768 810c-46 0-86 40-86 86s40 86 86 86 86-40 86-86-40-86-86-86zM256 470c46 0 86-40 86-86s-40-86-86-86-86 40-86 86 40 86 86 86zM256 726c46 0 86-40 86-86s-40-86-86-86-86 40-86 86 40 86 86 86zM256 982c46 0 86-40 86-86s-40-86-86-86-86 40-86 86 40 86 86 86zM512 214c46 0 86-40 86-86s-40-86-86-86-86 40-86 86 40 86 86 86z" />
<glyph unicode="&#xe926;" glyph-name="gsm-bars-black" d="M896 1024c70.692 0 128-57.308 128-128v-768c0-70.692-57.308-128-128-128s-128 57.308-128 128v768c0 70.692 57.308 128 128 128zM512 768c70.692 0 128-57.308 128-128v-512c0-70.692-57.308-128-128-128s-128 57.308-128 128v512c0 70.692 57.308 128 128 128zM128 384v0c70.692 0 128-57.308 128-128v-128c0-70.692-57.308-128-128-128s-128 57.308-128 128v128c0 70.692 57.308 128 128 128v0z" />
<glyph unicode="&#xe927;" glyph-name="HD" d="M512 0c-282.77 0-512 229.23-512 512s229.23 512 512 512c282.77 0 512-229.23 512-512s-229.23-512-512-512zM481.359 384v255.823h-54.273v-103.18h-116.813v103.18h-54.273v-255.823h54.273v106.903h116.813v-106.903h54.273zM544.258 640v-256h102.077c77.636 0 121.665 46.626 121.665 129.773 0 80.133-44.569 126.227-121.665 126.227h-102.077zM598.531 594.26v-164.521h39.177c47.983 0 74.94 29.075 74.94 83.147 0 51.767-27.855 81.374-74.94 81.374h-39.177z" />
<glyph unicode="&#xe928;" glyph-name="LD" d="M512 0c-282.77 0-512 229.23-512 512s229.23 512 512 512c282.77 0 512-229.23 512-512s-229.23-512-512-512zM472.4 433.325h-112.35v206.5h-52.85v-252.525h165.2v46.025zM520.35 640v-252.7h99.4c75.6 0 118.475 46.025 118.475 128.1 0 79.1-43.4 124.6-118.475 124.6h-99.4zM573.2 594.85v-162.4h38.15c46.725 0 72.975 28.7 72.975 82.075 0 51.1-27.125 80.325-72.975 80.325h-38.15z" />
<glyph unicode="&#xe929;" glyph-name="SD" d="M512 0c-282.77 0-512 229.23-512 512s229.23 512 512 512c282.77 0 512-229.23 512-512s-229.23-512-512-512zM281.6 451.175c1.925-47.075 40.95-76.65 101.15-76.65 63.35 0 102.375 31.15 102.375 82.075 0 39.2-21.875 61.075-72.625 71.75l-30.45 6.475c-29.575 6.3-41.65 15.225-41.65 30.8 0 19.25 17.5 31.5 43.925 31.5 25.55 0 44.1-13.3 46.55-33.25h49.7c-1.575 44.975-40.95 76.125-96.6 76.125-58.275 0-96.6-31.325-96.6-78.925 0-38.5 22.575-62.475 68.6-72.1l32.9-7c30.975-6.65 43.575-15.925 43.575-32.025 0-19.075-19.425-32.375-46.9-32.375-29.75 0-50.4 13.125-52.85 33.6h-51.1zM535 633.7v-252.7h99.4c75.6 0 118.475 46.025 118.475 128.1 0 79.1-43.4 124.6-118.475 124.6h-99.4zM587.85 588.55v-162.4h38.15c46.725 0 72.975 28.7 72.975 82.075 0 51.1-27.125 80.325-72.975 80.325h-38.15z" />
<glyph unicode="&#xe92a;" glyph-name="camera-take-picture" d="M725.333 512c0-117.821-95.513-213.333-213.333-213.333s-213.333 95.513-213.333 213.333c0 117.821 95.513 213.333 213.333 213.333s213.333-95.513 213.333-213.333zM512 256c141.385 0 256 114.615 256 256s-114.615 256-256 256v0c-141.385 0-256-114.615-256-256s114.615-256 256-256v0zM512 213.333c-164.949 0-298.667 133.718-298.667 298.667s133.718 298.667 298.667 298.667v0c164.949 0 298.667-133.718 298.667-298.667s-133.718-298.667-298.667-298.667v0z" />
<glyph unicode="&#xe92b;" glyph-name="rec" d="M512 0c-282.77 0-512 229.23-512 512s229.23 512 512 512c282.77 0 512-229.23 512-512s-229.23-512-512-512zM581.333 433.782h-110.595v59.233h104.338v40.332h-104.338v56.87h110.595v43.539h-161.665v-243.512h161.665v43.539zM738.771 384c58.849 0 101.802 36.282 106.029 88.933h-49.717c-4.904-26.832-26.888-44.045-56.143-44.045-38.556 0-62.4 31.895-62.4 83.196s23.844 83.027 62.231 83.027c29.086 0 51.239-18.394 56.143-46.407h49.717c-3.72 52.989-48.026 91.296-105.86 91.296-70.855 0-114.485-48.77-114.485-127.916 0-79.314 43.798-128.084 114.485-128.084zM230.27 478.502h41.769l45.489-88.258h57.834l-51.408 96.19c28.072 11.138 44.306 38.138 44.306 69.189 0 48.432-32.976 78.133-86.582 78.133h-102.478v-243.512h51.070v88.258zM230.27 592.58v-74.927h44.813c25.704 0 40.754 13.838 40.754 37.295 0 23.119-15.896 37.632-41.262 37.632h-44.306z" />
<glyph unicode="&#xe92c;" glyph-name="live" d="M512 0c-282.77 0-512 229.23-512 512s229.23 512 512 512c282.77 0 512-229.23 512-512s-229.23-512-512-512zM298.225 430.025h-112.35v206.5h-52.85v-252.525h165.2v46.025zM399.025 384v252.525h-52.85v-252.525h52.85zM591.525 384l84.175 252.525h-56.875l-56.35-193.025h-3.15l-57.4 193.025h-59.675l85.4-252.525h63.875zM886.050 429.15h-114.45v61.425h107.975v41.825h-107.975v58.975h114.45v45.15h-167.3v-252.525h167.3v45.15z" />
<glyph unicode="&#xe92d;" glyph-name="atheer-flashlight" horiz-adv-x="468" d="M25.98 1024h416.154c14.307 0 25.98-11.703 25.98-25.98v-98.655h-468.114v98.655c0 14.307 11.703 25.98 25.98 25.98zM468.114 847.404v-15.594c-0.026-40.014-12.407-77.131-33.535-107.748l0.416 0.637c-17.525-27.268-42.189-48.713-70.773-63.634v-620.047c-0.050-14.312-11.639-25.901-25.946-25.951h-208.433c-14.312 0.050-25.901 11.639-25.951 25.946v620.052c-28.584 14.921-53.248 36.367-70.802 63.634-20.695 29.975-33.065 67.081-33.090 107.075v15.6h468.114zM234.379 587.045c-14.921 0-26.624-11.703-26.624-25.951v-83.12c0-14.277 11.703-25.98 26.624-25.98 14.335 0.033 25.947 11.645 25.98 25.977v83.093c-0.033 14.335-11.645 25.947-25.977 25.98h-0.003z" />
<glyph unicode="&#xe92e;" glyph-name="atheer-mic-white" horiz-adv-x="843" d="M430.080 1024c80.294 0 143.209-70.807 143.209-161.19l0.151-294.189-286.72 256.482v37.707c0 90.353 63.096 161.19 143.36 161.19zM645.722 302.050l145.016-126.072 52.555 59.482-790.739 687.345-52.555-59.332 280.576-244.104v-70.054c0-88.606 63.548-158.057 144.715-158.057 0.273-0.002 0.596-0.003 0.918-0.003 31.51 0 60.527 10.675 83.631 28.605l-0.31-0.232 76.198-66.259c-41.582-31.047-93.992-49.71-150.761-49.71-0.988 0-1.974 0.006-2.96 0.017l0.15-0.001c-140.89 0-247.236 103.755-247.236 241.544v35.81h-79.661v-35.177c-1.355-163.418 122.82-301.056 286.84-317.922v-136.945h-182.814v-78.938h446.042v78.908h-182.814v136.945c66.696 7.623 126.035 34.348 173.699 74.493l-0.492-0.404zM742.099 529.077v39.544h-62.133v-39.544c0-21.926-1.807-43.791-5.331-65.144l51.11-63.97c10.842 41.261 16.414 85.022 16.354 129.114z" />
<glyph unicode="&#xe92f;" glyph-name="atheer-mic" horiz-adv-x="843" d="M430.080 1024c80.294 0 143.209-70.807 143.209-161.19l0.151-294.189-286.72 256.482v37.707c0 90.353 63.096 161.19 143.36 161.19zM645.722 302.050l145.016-126.072 52.555 59.482-790.739 687.345-52.555-59.332 280.576-244.104v-70.054c0-88.606 63.548-158.057 144.715-158.057 0.273-0.002 0.596-0.003 0.918-0.003 31.51 0 60.527 10.675 83.631 28.605l-0.31-0.232 76.198-66.259c-41.582-31.047-93.992-49.71-150.761-49.71-0.988 0-1.974 0.006-2.96 0.017l0.15-0.001c-140.89 0-247.236 103.755-247.236 241.544v35.81h-79.661v-35.177c-1.355-163.418 122.82-301.056 286.84-317.922v-136.945h-182.814v-78.938h446.042v78.908h-182.814v136.945c66.696 7.623 126.035 34.348 173.699 74.493l-0.492-0.404zM742.099 529.077v39.544h-62.133v-39.544c0-21.926-1.807-43.791-5.331-65.144l51.11-63.97c10.842 41.261 16.414 85.022 16.354 129.114z" />
<glyph unicode="&#xe930;" glyph-name="atheer-share-file" horiz-adv-x="819" d="M512 1024h-409.6c-0.102 0-0.222 0.001-0.342 0.001-56.365 0-102.059-45.693-102.059-102.059 0-0.12 0-0.24 0.001-0.361v0.019-819.2c0-56.554 45.846-102.4 102.4-102.4v0h614.4c56.554 0 102.4 45.846 102.4 102.4v0 614.4l-307.2 307.2zM437.248 134.656v102.4h-204.8v101.888h204.8v102.4l153.6-153.6-153.6-153.088zM460.8 665.6v281.6l281.6-281.6h-281.6z" />
<glyph unicode="&#xe931;" glyph-name="atheer-message" d="M768 512v460.8c0 28.277-22.923 51.2-51.2 51.2v0h-665.6c-28.277 0-51.2-22.923-51.2-51.2v0-716.8l204.8 204.8h512c28.277 0 51.2 22.923 51.2 51.2v0zM972.8 819.2h-102.4v-460.8h-665.6v-102.4c0-28.277 22.923-51.2 51.2-51.2h563.2l204.8-204.8v768c0 28.277-22.923 51.2-51.2 51.2v0z" />
<glyph unicode="&#xe932;" glyph-name="atheer-flashlight-white" horiz-adv-x="468" d="M25.98 1024h416.154c14.307 0 25.98-11.703 25.98-25.98v-98.655h-468.114v98.655c0 14.307 11.703 25.98 25.98 25.98zM468.114 847.404v-15.594c-0.026-40.014-12.407-77.131-33.535-107.748l0.416 0.637c-17.525-27.268-42.189-48.713-70.773-63.634v-620.047c-0.050-14.312-11.639-25.901-25.946-25.951h-208.433c-14.312 0.050-25.901 11.639-25.951 25.946v620.052c-28.584 14.921-53.248 36.367-70.802 63.634-20.695 29.975-33.065 67.081-33.090 107.075v15.6h468.114zM234.379 587.045c-14.921 0-26.624-11.703-26.624-25.951v-83.12c0-14.277 11.703-25.98 26.624-25.98 14.335 0.033 25.947 11.645 25.98 25.977v83.093c-0.033 14.335-11.645 25.947-25.977 25.98h-0.003z" />
<glyph unicode="&#xe933;" glyph-name="atheer-menu-up" d="M512 682l256-256-60-60-196 196-196-196-60 60z" />
<glyph unicode="&#xe934;" glyph-name="atheer-menu-down" d="M708 658l60-60-256-256-256 256 60 60 196-196z" />
<glyph unicode="&#xe935;" glyph-name="Active-Zooming" horiz-adv-x="1056" d="M889.568 675.859c1.146-10.381 14.874-251.498-32.029-369.168-3.434-9.232-12.582-14.998-21.734-14.998-3.434 0-5.722 1.152-9.152 2.307-12.582 4.614-18.304 19.613-13.728 31.149 41.181 101.52 29.744 321.869 28.598 344.944-2.288 10.384-9.152 28.842-26.31 28.842-13.728 0-25.168-11.536-25.168-25.382v-48.451c0-13.846-10.294-24.227-24.022-24.227-13.725 0-24.022 10.381-24.022 24.227v48.451c0 2.307 0 5.77 0 8.077 0 1.155 0 3.462 0 4.614v32.303c0 13.844-11.44 25.38-25.165 25.38-13.728 0-25.168-11.536-25.168-25.38v-93.445c0-13.846-10.294-24.227-24.022-24.227s-24.022 10.381-24.022 24.227v125.748c0 13.844-11.44 25.38-25.168 25.38-13.725 0-25.165-11.537-25.165-25.38v-117.674c0-13.843-10.298-24.227-24.022-24.227-13.728 0-24.022 10.384-24.022 24.227v278.033c0 13.844-11.44 25.38-25.168 25.38s-25.168-11.537-25.168-25.38v-400.321c0-13.843-10.294-24.227-24.022-24.227-8.006 0-16.013 4.614-20.589 10.384l-107.53 95.754c-5.722 4.614-11.44 6.922-17.162 6.922-5.719 0-11.438-3.459-14.87-8.074-5.72-6.922-1.144-25.382 11.44-41.533 4.576-5.77 85.795-109.597 167.014-174.202 10.294-8.077 12.582-23.075 3.434-33.456-4.576-5.77-11.44-9.232-18.304-9.232-5.722 0-10.298 1.155-14.87 5.77-86.941 69.219-171.592 177.664-175.024 182.278-26.311 35.763-30.886 74.989-10.295 100.368 11.439 14.998 29.742 24.227 48.046 25.379 19.446 1.155 37.75-5.766 53.763-19.61l72.070-64.605v344.943c0 40.378 33.174 73.834 73.213 73.834 40.035 0 73.21-33.456 73.21-73.834v-89.986c8.010 3.461 16.016 4.615 25.168 4.615 28.598 0 53.763-16.151 65.203-40.378 10.298 5.768 21.734 8.076 33.174 8.076 32.032 0 60.63-21.92 69.779-50.761 9.152 3.461 19.45 5.768 29.744 5.768 35.462 0 62.915-26.534 73.213-69.221-1.146 2.307-1.146 1.155-1.146 0zM299.297 853.524c3.432-2.308 8.007-3.461 11.439-3.461 8.007 0 17.158 4.615 21.734 12.69l38.896 73.834 1.142-5.768c3.43-10.383 12.582-17.305 22.88-17.305 2.288 0 4.576 0 6.864 1.154 12.582 3.461 19.446 17.305 16.013 29.995l-18.301 62.298c-3.434 12.69-17.162 19.612-29.744 16.151l-59.484-18.459c-12.583-3.461-19.447-17.305-16.015-29.995s17.159-19.612 29.743-16.151l5.718 1.154-40.037-74.988c-6.864-9.229-2.288-24.227 9.152-31.149zM284.426 694.32c-3.432 12.69-17.159 19.612-29.742 16.15l-5.72-1.154 40.038 74.988c5.72 11.537 2.288 26.534-10.295 32.303-11.439 5.768-26.31 2.307-32.030-10.383l-38.894-73.834-1.144 5.768c-3.432 12.69-17.159 19.612-29.743 16.151s-19.447-17.305-16.015-29.995l18.303-62.299c2.288-5.766 5.72-11.536 11.439-13.843 3.432-2.307 6.864-2.307 11.439-2.307 2.288 0 4.576 0 6.864 1.152l59.485 18.461c12.583 2.307 19.447 16.15 16.015 28.842z" />
<glyph unicode="&#xe936;" glyph-name="Disabled-Zooming" d="M858.798 669.057c0.829-7.438 8.493-138.926-6.861-251.547l-43.359 37.41c9.967 89.519 4.987 186.995 3.966 206.96l-0.084 1.673c-2.206 9.908-8.828 27.527-25.377 27.527-13.241 0-24.272-11.013-24.272-24.225v-46.241c0-13.213-9.93-23.124-23.17-23.124-13.238 0-23.167 9.911-23.167 23.124v89.184c0 13.212-11.034 24.222-24.275 24.222-13.238 0-24.272-11.010-24.272-24.222v-89.184c0-13.213-9.93-23.124-23.167-23.124-0.496 0-0.987 0.016-1.474 0.043l-21.253 18.336c-0.292 1.524-0.444 3.106-0.444 4.745v120.012c0 13.212-11.031 24.223-24.272 24.223s-24.272-11.011-24.272-24.223v-82.491l-46.341 39.979v195.556c0 13.212-11.031 24.223-24.272 24.223-13.238 0-24.272-11.010-24.272-24.223v-153.671l-45.236 39.028v111.339c0 38.537 31.998 70.467 70.613 70.467s70.609-31.93 70.609-70.467v-85.881c7.723 3.303 15.447 4.404 24.272 4.404 27.583 0 51.855-15.415 62.889-38.537 9.93 5.505 20.964 7.707 31.995 7.707 30.894 0 58.474-20.92 67.302-48.446 8.825 3.303 18.755 5.505 28.684 5.505 34.202 0 60.683-25.323 70.613-66.063-1.105 2.203-1.105 1.102-1.105 0zM478.161 591.636v-80.027c0-13.213-9.93-23.124-23.167-23.124-7.723 0-15.447 4.406-19.859 9.911l-103.709 91.384c-5.517 4.406-11.034 6.606-16.552 6.606-5.516 0-11.032-3.302-14.342-7.705-5.517-6.606-1.103-24.225 11.034-39.638l0.472-0.593c7.888-9.883 84.247-105.562 160.607-165.665 9.93-7.708 12.136-22.022 3.311-31.93-4.413-5.505-11.031-8.81-17.653-8.81-5.517 0-9.93 1.102-14.342 5.505-83.85 66.064-165.494 169.562-168.804 173.965-25.376 34.133-29.789 71.568-9.929 95.791 11.033 14.314 28.686 23.124 46.339 24.222 18.755 1.102 36.408-5.505 51.855-18.717l69.505-61.657v69.508l-156.881 135.358-35.090-65.034 5.517 1.102c12.136 3.302 25.376-3.305 28.685-15.416s-3.31-25.324-15.446-27.524l-57.371-17.619c-2.207-1.098-4.413-1.098-6.62-1.098-4.413 0-7.723 0-11.033 2.2-5.517 2.203-8.826 7.708-11.033 13.213l-17.653 59.457c-3.31 12.111 3.31 25.324 15.446 28.627s25.376-3.303 28.686-15.414l1.103-5.505 37.512 70.467c0.519 1.14 1.117 2.203 1.783 3.187l-57.957 50.005 38.894 45.021 643.8-555.462-38.893-45.022-348.213 300.432zM296.152 897.035l35.462-30.597 27.39 51.454 1.105-5.505c3.311-9.91 12.136-16.516 22.066-16.516 2.206 0 4.413 0 6.619 1.101 12.136 3.303 18.758 16.516 15.447 28.627l-17.653 59.457c-3.308 12.111-16.548 18.718-28.684 15.414l-57.372-17.617c-12.136-3.303-18.756-16.516-15.446-28.627s16.549-18.717 28.686-15.415l5.514 1.101-23.134-42.878z" />
</font>
</defs>
</svg>
